<!--?xml version="1.0" encoding="UTF-8" standalone="no"?-->
<svg viewport-fill="#275283" xmlns:dc="http://purl.org/dc/elements/1.1/" xmlns:cc="http://creativecommons.org/ns#" xmlns:rdf="http://www.w3.org/1999/02/22-rdf-syntax-ns#" xmlns:svg="http://www.w3.org/2000/svg" xmlns="http://www.w3.org/2000/svg" xmlns:xlink="http://www.w3.org/1999/xlink" id="svg6" viewBox="0 0 1024 768" height="768px" width="1024px" version="1.1">
  
  <defs id="defs10"></defs>
  <style><![CDATA[  #title path, #title polygon{ fill: #419abe !important; } #tagline path, #tagline polygon{ fill: #419abe !important; }  #icon *{ fill: #419abe !important; }  #logo-group > rect { fill-opacity: 0; } ]]> </style><g id="logo-group"><rect x="0" y="0" width="1024" height="768" style="fill: #275283" />
    
    <g id="title" style="font-style:normal;font-weight:300;font-size:72px;line-height:1;font-family:'Montserrat Light Alt1';font-variant-ligatures:none;text-align:center;text-anchor:middle" aria-label="VENIQA">
      <path id="path14" style="font-style: normal; font-weight: 300; font-size: 72px; line-height: 1; font-family: &quot;Montserrat Light Alt1&quot;; font-variant-ligatures: none; text-align: center; text-anchor: middle; fill: rgb(65, 154, 190);" d="m 417.5945,-50.4 h -3.816 l -20.376,45.648 -20.376,-45.648 h -4.032 L 391.4585,0 h 3.672 z" transform="translate(0 317.54143439878) translate(252.00000000000006 16.5108628801896) scale(1.6716098634883017) translate(-368.9945 50.4)"></path>
      <path id="path16" style="font-style: normal; font-weight: 300; font-size: 72px; line-height: 1; font-family: &quot;Montserrat Light Alt1&quot;; font-variant-ligatures: none; text-align: center; text-anchor: middle; fill: rgb(65, 154, 190);" d="m 458.3375,-27.216 h -32.616 v 3.24 h 32.616 z m 0,-23.184 h -32.616 v 3.312 h 32.616 z m -32.616,47.088 V 0 h 32.616 v -3.312 z" transform="translate(0 317.54143439878) translate(355.18346204354236 16.5108628801896) scale(1.6716098634883017) translate(-425.7215 50.4)"></path>
      <path id="path18" style="font-style: normal; font-weight: 300; font-size: 72px; line-height: 1; font-family: &quot;Montserrat Light Alt1&quot;; font-variant-ligatures: none; text-align: center; text-anchor: middle; fill: rgb(65, 154, 190);" d="m 514.99587,-50.4 h -3.672 v 43.776 l -34.272,-43.776 h -3.096 V 0 h 3.67201 V -43.776 L 511.97187,0 h 3.024 z" transform="translate(0 317.54143439878) translate(444.17056001212813 16.5108628801896) scale(1.6716098634883017) translate(-473.95587 50.4)"></path>
      <path id="path20" style="font-style: normal; font-weight: 300; font-size: 72px; line-height: 1; font-family: &quot;Montserrat Light Alt1&quot;; font-variant-ligatures: none; text-align: center; text-anchor: middle; fill: rgb(65, 154, 190);" d="M 532.5965,-50.4 V 0 h 3.672 v -50.4 z" transform="translate(0 317.54143439878) translate(550.5528648387377 16.5108628801896) scale(1.6716098634883017) translate(-532.5965 50.4)"></path>
      <path id="path22" style="font-style: normal; font-weight: 300; font-size: 72px; line-height: 1; font-family: &quot;Montserrat Light Alt1&quot;; font-variant-ligatures: none; text-align: center; text-anchor: middle; fill: rgb(65, 154, 190);" d="m 598.25487,-12.6 c 2.08801,-3.744 3.168,-7.92 3.168,-12.6 0,-4.824 -1.15199,-9.216 -3.456,-13.104 -2.304,-3.816 -5.4,-6.912 -9.36,-9.144 -4.03199,-2.16 -8.496,-3.312 -13.392,-3.312 -4.96799,0 -9.432,1.152 -13.392,3.384 -4.03199,2.232 -7.12799,5.256 -9.43199,9.144 -2.30401,3.888 -3.384,8.28 -3.384,13.032 0,4.68 1.00799,8.856 3.096,12.6 2.08799,3.744 4.96799,6.768 8.712,9.072 3.672,2.304 7.84799,3.528 12.528,3.816 V 9.72 h 3.74399 V 0.288 c 4.60801,-0.288 8.712,-1.512 12.456,-3.816 3.744,-2.304 6.624,-5.328 8.712,-9.072 z m -10.72799,6.192 c -3.16801,2.016 -6.69601,3.096 -10.58401,3.312 v -12.96 h -3.52799 v 12.96 c -3.96,-0.216 -7.48801,-1.368 -10.65601,-3.384 -3.168,-2.016 -5.616,-4.608 -7.41599,-7.92 -1.80001,-3.24 -2.66401,-6.84 -2.66401,-10.8 0,-4.104 0.936,-7.848 2.952,-11.232 1.94401,-3.384 4.608,-6.048 8.06401,-7.992 3.456,-1.944 7.27199,-2.952 11.51999,-2.952 4.17601,0 7.992,1.008 11.448,2.952 3.384,1.944 6.048,4.608 8.06401,7.992 1.944,3.384 2.95199,7.128 2.95199,11.232 0,3.96 -0.93599,7.56 -2.736,10.872 -1.8,3.312 -4.24799,5.904 -7.41599,7.92 z" transform="translate(0 317.54143439878) translate(586.3426672277704 15.909083329333804) scale(1.6716098634883017) translate(-549.00688 50.76)"></path>
      <path id="path24" style="font-style: normal; font-weight: 300; font-size: 72px; line-height: 1; font-family: &quot;Montserrat Light Alt1&quot;; font-variant-ligatures: none; text-align: center; text-anchor: middle; fill: rgb(65, 154, 190);" d="m 631.88787,-50.4 h -3.672 L 605.03188,0 h 3.96 l 21.024,-46.368 21.096,46.368 h 3.95999 z" transform="translate(0 317.54143439878) translate(688.3526591471441 16.5108628801896) scale(1.6716098634883017) translate(-605.03188 50.4)"></path>
    </g>
    <g id="tagline" style="font-style:normal;font-weight:400;font-size:32px;line-height:1;font-family:Montserrat;font-variant-ligatures:none;text-align:center;text-anchor:middle"></g>
  </g>
</svg>
